<svg width="17" height="18" viewBox="0 0 17 18" fill="none" xmlns="http://www.w3.org/2000/svg">
<g filter="url(#filter0_d_19417_175)">
<path d="M4.27012 12.28C3.99012 11.92 3.64012 11.19 3.03012 10.28C2.68012 9.78 1.82012 8.83 1.56012 8.34C1.37269 8.04223 1.3183 7.67966 1.41012 7.34C1.56708 6.69421 2.17968 6.26582 2.84012 6.34C3.35092 6.44261 3.82034 6.69297 4.19012 7.06C4.4483 7.30318 4.68578 7.56742 4.90012 7.85C5.06012 8.05 5.10012 8.13 5.28012 8.36C5.46012 8.59 5.58012 8.82 5.49012 8.48C5.42012 7.98 5.30012 7.14 5.13012 6.39C5.00012 5.82 4.97012 5.73 4.85012 5.3C4.73012 4.87 4.66012 4.51 4.53012 4.02C4.41128 3.53858 4.31782 3.05124 4.25012 2.56C4.12407 1.93171 4.21577 1.27922 4.51012 0.710004C4.85951 0.381373 5.37205 0.294636 5.81012 0.490004C6.25071 0.81534 6.57922 1.26966 6.75012 1.79C7.01218 2.43039 7.18708 3.10307 7.27012 3.79C7.43012 4.79 7.74012 6.25 7.75012 6.55C7.75012 6.18 7.68012 5.4 7.75012 5.05C7.81947 4.68513 8.07307 4.38232 8.42012 4.25C8.71793 4.15863 9.03296 4.13808 9.34012 4.19C9.65015 4.25482 9.92478 4.43315 10.1101 4.69C10.3418 5.2734 10.4704 5.8926 10.4901 6.52C10.5169 5.97059 10.6109 5.42653 10.7701 4.9C10.9372 4.66455 11.1812 4.49479 11.4601 4.42C11.7907 4.35956 12.1295 4.35956 12.4601 4.42C12.7312 4.51063 12.9684 4.68152 13.1401 4.91C13.3519 5.44035 13.4801 6.00035 13.5201 6.57C13.5201 6.71 13.5901 6.18 13.8101 5.83C13.9244 5.4906 14.2112 5.23797 14.5622 5.16728C14.9133 5.09659 15.2755 5.21857 15.5122 5.48728C15.749 5.75599 15.8244 6.1306 15.7101 6.47C15.7101 7.12 15.7101 7.09 15.7101 7.53C15.7101 7.97 15.7101 8.36 15.7101 8.73C15.6737 9.31518 15.5935 9.89681 15.4701 10.47C15.2961 10.9771 15.0539 11.4582 14.7501 11.9C14.2646 12.44 13.8634 13.0502 13.5601 13.71C13.4849 14.0378 13.4513 14.3738 13.4601 14.71C13.4591 15.0206 13.4995 15.33 13.5801 15.63C13.1713 15.6732 12.759 15.6732 12.3501 15.63C11.9601 15.57 11.4801 14.79 11.3501 14.55C11.2858 14.4211 11.1541 14.3397 11.0101 14.3397C10.8661 14.3397 10.7344 14.4211 10.6701 14.55C10.4501 14.93 9.96012 15.62 9.62012 15.66C8.95012 15.74 7.57012 15.66 6.48012 15.66C6.48012 15.66 6.66012 14.66 6.25012 14.3C5.84012 13.94 5.42012 13.52 5.11012 13.24L4.27012 12.28Z" fill="white"/>
<path fill-rule="evenodd" clip-rule="evenodd" d="M4.27012 12.28C3.99012 11.92 3.64012 11.19 3.03012 10.28C2.68012 9.78 1.82012 8.83 1.56012 8.34C1.37269 8.04223 1.3183 7.67966 1.41012 7.34C1.56708 6.69421 2.17968 6.26582 2.84012 6.34C3.35092 6.44261 3.82034 6.69297 4.19012 7.06C4.4483 7.30318 4.68578 7.56742 4.90012 7.85C5.06012 8.05 5.10012 8.13 5.28012 8.36C5.46012 8.59 5.58012 8.82 5.49012 8.48C5.42012 7.98 5.30012 7.14 5.13012 6.39C5.00012 5.82 4.97012 5.73 4.85012 5.3C4.73012 4.87 4.66012 4.51 4.53012 4.02C4.41128 3.53858 4.31782 3.05124 4.25012 2.56C4.12407 1.93171 4.21577 1.27922 4.51012 0.710004C4.85951 0.381373 5.37205 0.294636 5.81012 0.490004C6.25071 0.81534 6.57922 1.26966 6.75012 1.79C7.01218 2.43039 7.18708 3.10307 7.27012 3.79C7.43012 4.79 7.74012 6.25 7.75012 6.55C7.75012 6.18 7.68012 5.4 7.75012 5.05C7.81947 4.68513 8.07307 4.38232 8.42012 4.25C8.71793 4.15863 9.03296 4.13808 9.34012 4.19C9.65015 4.25482 9.92478 4.43315 10.1101 4.69C10.3418 5.2734 10.4704 5.8926 10.4901 6.52C10.5169 5.97059 10.6109 5.42653 10.7701 4.9C10.9372 4.66455 11.1812 4.49479 11.4601 4.42C11.7907 4.35956 12.1295 4.35956 12.4601 4.42C12.7312 4.51063 12.9684 4.68152 13.1401 4.91C13.3519 5.44035 13.4801 6.00035 13.5201 6.57C13.5201 6.71 13.5901 6.18 13.8101 5.83C13.9244 5.4906 14.2112 5.23797 14.5622 5.16728C14.9133 5.09659 15.2755 5.21857 15.5122 5.48728C15.749 5.75599 15.8244 6.1306 15.7101 6.47C15.7101 7.12 15.7101 7.09 15.7101 7.53C15.7101 7.97 15.7101 8.36 15.7101 8.73C15.6737 9.31518 15.5935 9.89681 15.4701 10.47C15.2961 10.9771 15.0539 11.4582 14.7501 11.9C14.2646 12.44 13.8634 13.0502 13.5601 13.71C13.4849 14.0378 13.4513 14.3738 13.4601 14.71C13.4591 15.0206 13.4995 15.33 13.5801 15.63C13.1713 15.6732 12.759 15.6732 12.3501 15.63C11.9601 15.57 11.4801 14.79 11.3501 14.55C11.2858 14.4211 11.1541 14.3397 11.0101 14.3397C10.8661 14.3397 10.7344 14.4211 10.6701 14.55C10.4501 14.93 9.96012 15.62 9.62012 15.66C8.95012 15.74 7.57012 15.66 6.48012 15.66C6.48012 15.66 6.66012 14.66 6.25012 14.3C5.84012 13.94 5.42012 13.52 5.11012 13.24L4.27012 12.28Z" stroke="black" stroke-width="0.75" stroke-linecap="round" stroke-linejoin="round"/>
<path d="M12.75 12.8259V9.37411C12.75 9.16749 12.5821 9 12.375 9C12.1679 9 12 9.16749 12 9.37411V12.8259C12 13.0325 12.1679 13.2 12.375 13.2C12.5821 13.2 12.75 13.0325 12.75 12.8259Z" fill="black"/>
<path d="M10.77 12.8246L10.75 9.37107C10.7488 9.16495 10.5799 8.99882 10.3728 9.00001C10.1657 9.00119 9.99881 9.16925 10 9.37537L10.02 12.8289C10.0212 13.035 10.1901 13.2012 10.3972 13.2C10.6043 13.1988 10.7712 13.0307 10.77 12.8246Z" fill="black"/>
<path d="M8.00001 9.37899L8.02001 12.8254C8.02121 13.0335 8.19008 13.2012 8.39719 13.2C8.60429 13.1988 8.7712 13.0291 8.76999 12.821L8.74999 9.3746C8.74879 9.1665 8.57992 8.99879 8.37281 9.00001C8.16571 9.00122 7.9988 9.1709 8.00001 9.37899Z" fill="black"/>
</g>
<defs>
<filter id="filter0_d_19417_175" x="0.191455" y="0.0117798" width="16.7462" height="17.8588" filterUnits="userSpaceOnUse" color-interpolation-filters="sRGB">
<feFlood flood-opacity="0" result="BackgroundImageFix"/>
<feColorMatrix in="SourceAlpha" type="matrix" values="0 0 0 0 0 0 0 0 0 0 0 0 0 0 0 0 0 0 127 0" result="hardAlpha"/>
<feOffset dy="1"/>
<feGaussianBlur stdDeviation="0.4"/>
<feColorMatrix type="matrix" values="0 0 0 0 0 0 0 0 0 0 0 0 0 0 0 0 0 0 0.5 0"/>
<feBlend mode="normal" in2="BackgroundImageFix" result="effect1_dropShadow_19417_175"/>
<feBlend mode="normal" in="SourceGraphic" in2="effect1_dropShadow_19417_175" result="shape"/>
</filter>
</defs>
</svg>
