<svg width="27" height="30" viewBox="0 0 27 30" fill="none" xmlns="http://www.w3.org/2000/svg">
<path d="M14.87 21.6964C14.87 25.6609 11.6535 28.8754 7.685 28.8754C3.71647 28.8754 0.5 25.6609 0.5 21.6964C0.5 17.7319 3.71647 14.5173 7.685 14.5173C11.6535 14.5173 14.87 17.7319 14.87 21.6964Z" stroke="#A4ACAD"/>
<ellipse cx="7.68501" cy="21.6964" rx="1.92125" ry="1.91977" fill="#A4ACAD"/>
<path d="M26.3975 8.25801C26.3975 12.2225 23.181 15.4371 19.2125 15.4371C15.244 15.4371 12.0275 12.2225 12.0275 8.25801C12.0275 4.29349 15.244 1.07895 19.2125 1.07895C23.181 1.07895 26.3975 4.29349 26.3975 8.25801Z" stroke="#A4ACAD"/>
<ellipse cx="19.2125" cy="8.25802" rx="1.92125" ry="1.91977" fill="#A4ACAD"/>
<path d="M9.10625 8.25801C9.10625 10.102 7.61013 11.5975 5.76375 11.5975C3.91737 11.5975 2.42125 10.102 2.42125 8.25801C2.42125 6.414 3.91737 4.91848 5.76375 4.91848C7.61013 4.91848 9.10625 6.414 9.10625 8.25801Z" stroke="#A4ACAD"/>
<ellipse cx="5.76376" cy="8.25802" rx="0.960625" ry="0.959883" fill="#A4ACAD"/>
<path d="M24.4763 23.6161C24.4763 25.4602 22.9801 26.9557 21.1338 26.9557C19.2874 26.9557 17.7913 25.4602 17.7913 23.6161C17.7913 21.7721 19.2874 20.2766 21.1338 20.2766C22.9801 20.2766 24.4763 21.7721 24.4763 23.6161Z" stroke="#A4ACAD"/>
<ellipse cx="21.1337" cy="23.6161" rx="0.960625" ry="0.959883" fill="#A4ACAD"/>
</svg>
